<?xml version="1.0" encoding="UTF-8"?>
<svg width="700pt" height="700pt" version="1.1" viewBox="0 0 700 700" xmlns="http://www.w3.org/2000/svg">
 <g>
  <path d="m350 163.33c0-24.754-9.832-48.492-27.336-65.996-17.504-17.504-41.242-27.336-65.996-27.336-24.754 0-48.496 9.832-65.996 27.336-17.504 17.504-27.34 41.242-27.34 65.996 0 24.754 9.8359 48.496 27.34 65.996 17.5 17.504 41.242 27.34 65.996 27.34 24.754 0 48.492-9.8359 65.996-27.34 17.504-17.5 27.336-41.242 27.336-65.996zm-140 0c0-12.375 4.918-24.246 13.668-32.996 8.7539-8.7539 20.621-13.668 33-13.668 12.375 0 24.246 4.9141 32.996 13.668 8.7539 8.75 13.668 20.621 13.668 32.996 0 12.379-4.9141 24.246-13.668 33-8.75 8.75-20.621 13.668-32.996 13.668-12.379 0-24.246-4.918-33-13.668-8.75-8.7539-13.668-20.621-13.668-33z"/>
  <path d="m583.33 396.67c0-24.754-9.832-48.496-27.336-65.996-17.504-17.504-41.242-27.34-65.996-27.34h-70c-18.848 0.074219-37.23 5.8477-52.734 16.566-22.02-25.199-53.801-39.73-87.266-39.898h-46.668c-30.941 0-60.617 12.293-82.496 34.172-21.879 21.879-34.168 51.555-34.168 82.496v70c0 8.3359 4.4453 16.039 11.664 20.207s16.117 4.168 23.336 0 11.664-11.871 11.664-20.207v-70c0-18.566 7.375-36.371 20.504-49.5 13.129-13.125 30.934-20.5 49.496-20.5h46.668c18.566 0 36.371 7.375 49.496 20.5 13.129 13.129 20.504 30.934 20.504 49.5v70c0 8.3359 4.4492 16.039 11.668 20.207s16.113 4.168 23.332 0 11.668-11.871 11.668-20.207v-70c-0.15625-12.164-2.2852-24.219-6.3008-35.703 8.3008-6.9883 18.781-10.867 29.633-10.965h70c12.375 0 24.246 4.918 33 13.668 8.75 8.7539 13.668 20.621 13.668 33v70c0 8.3359 4.4453 16.039 11.664 20.207s16.117 4.168 23.336 0 11.664-11.871 11.664-20.207z"/>
  <path d="m536.67 198.33c0-21.656-8.6055-42.43-23.922-57.746-15.316-15.316-36.086-23.918-57.746-23.918s-42.43 8.6016-57.746 23.918c-15.316 15.316-23.922 36.09-23.922 57.746 0 21.66 8.6055 42.434 23.922 57.75 15.316 15.312 36.086 23.918 57.746 23.918s42.43-8.6055 57.746-23.918c15.316-15.316 23.922-36.09 23.922-57.75zm-116.67 0c0-9.2812 3.6875-18.184 10.25-24.746 6.5664-6.5664 15.469-10.254 24.75-10.254s18.184 3.6875 24.75 10.254c6.5625 6.5625 10.25 15.465 10.25 24.746 0 9.2852-3.6875 18.188-10.25 24.75-6.5664 6.5625-15.469 10.25-24.75 10.25s-18.184-3.6875-24.75-10.25c-6.5625-6.5625-10.25-15.465-10.25-24.75z"/>
 </g>
</svg>
