<?xml version="1.0" encoding="UTF-8"?>
<svg width="700pt" height="700pt" version="1.1" viewBox="0 0 700 700" xmlns="http://www.w3.org/2000/svg">
 <g>
  <path d="m350 45.5c-60.137 0.18359-117.92 23.418-161.44 64.914l-1.3516-21h-0.003906c-0.52344-6.4258-3.5195-12.395-8.3516-16.66-4.8359-4.2617-11.133-6.4883-17.57-6.207-6.4805 0.4375-12.523 3.4219-16.809 8.3008s-6.4609 11.258-6.0586 17.738l5.4141 84c0.14062 0.69531 0.31641 1.3789 0.53516 2.0547 0.25781 1.6914 0.69531 3.3477 1.3086 4.9453 0.49609 1.3398 1.1211 2.6289 1.8633 3.8516 1.6016 2.7539 3.7617 5.1406 6.3477 7 0.64844 0.65625 1.3438 1.2617 2.0781 1.8203 0.75391 0.36328 1.5352 0.67188 2.332 0.93359 0.62891 0.28125 1.2383 0.55859 1.8906 0.79297 2.5703 0.96094 5.2812 1.4844 8.0273 1.5391h76.789c8.7539 0 16.84-4.668 21.219-12.25 4.375-7.582 4.375-16.918 0-24.5-4.3789-7.582-12.465-12.25-21.219-12.25h-27.559c30.07-30.688 69.867-49.977 112.59-54.566 42.715-4.5859 85.703 5.8125 121.6 29.418 35.895 23.605 62.477 58.949 75.195 99.988 12.715 41.039 10.777 85.219-5.4844 124.99-16.262 39.766-45.832 72.648-83.66 93.02-37.828 20.371-81.559 26.965-123.71 18.656-42.152-8.3125-80.105-31.012-107.37-64.215s-42.148-74.848-42.098-117.81c0-8.7539-4.668-16.84-12.25-21.219-7.582-4.375-16.918-4.375-24.5 0-7.582 4.3789-12.25 12.465-12.25 21.219 0 62.191 24.707 121.84 68.684 165.82 43.977 43.977 103.62 68.684 165.82 68.684s121.84-24.707 165.82-68.684c43.977-43.977 68.684-103.62 68.684-165.82s-24.707-121.84-68.684-165.82c-43.977-43.977-103.62-68.684-165.82-68.684z"/>
  <path d="m350 162.17c-6.4961 0.003906-12.723 2.5898-17.316 7.1797-4.5938 4.5938-7.1758 10.824-7.1836 17.32v93.332c0.015625 6.4922 2.5977 12.719 7.1875 17.312l70 70c6.1836 6.1875 15.199 8.6016 23.648 6.3398 8.4492-2.2656 15.051-8.8672 17.316-17.316 2.2617-8.4492-0.15234-17.465-6.3398-23.648l-62.812-62.836v-83.184c-0.007812-6.4961-2.5898-12.727-7.1836-17.32-4.5938-4.5898-10.82-7.1758-17.316-7.1797z"/>
 </g>
</svg>
