<?xml version="1.0" encoding="UTF-8"?>
<svg width="700pt" height="700pt" version="1.1" viewBox="0 0 700 700" xmlns="http://www.w3.org/2000/svg">
 <path d="m443.33 513.33h93.336c12.375 0 24.246-4.9141 32.996-13.668 8.7539-8.75 13.668-20.621 13.668-32.996v-244.07c0.050781-15.652-7.7461-30.281-20.766-38.969l-186.67-124.37c-7.668-5.1172-16.68-7.8477-25.898-7.8477s-18.23 2.7305-25.898 7.8477l-186.67 124.37c-13.02 8.6875-20.816 23.316-20.766 38.969v244.07c0 12.375 4.9141 24.246 13.668 32.996 8.75 8.7539 20.621 13.668 32.996 13.668h93.336c12.375 0 24.246-4.9141 32.996-13.668 8.7539-8.75 13.668-20.621 13.668-32.996v-70c0-16.672 8.8945-32.078 23.336-40.414 14.438-8.3398 32.227-8.3398 46.664 0 14.441 8.3359 23.336 23.742 23.336 40.414v70c0 12.375 4.9141 24.246 13.668 32.996 8.75 8.7539 20.621 13.668 32.996 13.668zm-93.332-210c-24.754 0-48.492 9.8359-65.996 27.34-17.504 17.5-27.336 41.242-27.336 65.996v70h-93.336v-244.07l186.67-124.6 186.67 124.6v244.07h-93.336v-70c0-24.754-9.832-48.496-27.336-65.996-17.504-17.504-41.242-27.34-65.996-27.34z"/>
</svg>
