<?xml version="1.0" encoding="UTF-8"?>
<svg width="700pt" height="700pt" version="1.1" viewBox="0 0 700 700" xmlns="http://www.w3.org/2000/svg">
 <g>
  <path d="m350 490c86.801 0 158.43-23.332 191.8-61.367 55.066-63.934 55.066-233.33 0-297.27-33.367-38.035-105-61.367-191.8-61.367s-158.43 23.332-191.8 61.367c-55.066 63.934-55.066 233.33 0 297.27 33.367 38.035 105 61.367 191.8 61.367zm-156.57-328.07c23.566-27.066 86.566-45.266 156.57-45.266s133 18.199 156.57 45.266c39.898 46.668 39.898 189.7 0 236.13-23.566 27.066-86.566 45.266-156.57 45.266s-133-18.199-156.57-45.266c-39.898-46.434-39.898-189.7 0-236.13z"/>
  <path d="m291.67 309.87c16.551 13.254 37.125 20.473 58.332 20.473s41.781-7.2188 58.332-20.473l72.801-58.332c5.4414-3.6172 9.1172-9.3477 10.133-15.801s-0.71875-13.039-4.7812-18.152c-4.0664-5.1133-10.09-8.2891-16.605-8.7539s-12.93 1.8203-17.68 6.3047l-73.035 58.332h0.003907c-8.2773 6.6289-18.566 10.238-29.168 10.238s-20.891-3.6094-29.168-10.238l-73.031-58.332c-6.5508-4.3555-14.855-5.1133-22.09-2.0234-7.2305 3.0898-12.418 9.6172-13.801 17.363-1.3789 7.7422 1.2383 15.66 6.957 21.062z"/>
 </g>
</svg>
