<?xml version="1.0" encoding="UTF-8"?>
<svg width="700pt" height="700pt" version="1.1" viewBox="0 0 700 700" xmlns="http://www.w3.org/2000/svg">
 <g>
  <path d="m432.37 57.398c-21.898-21.828-51.562-34.07-82.48-34.039-30.918 0.027344-60.559 12.332-82.414 34.199-21.855 21.871-34.133 51.523-34.141 82.441v67.199c-13.008 4.9492-24.961 12.312-35.23 21.699-32.203 32.203-34.77 100.8-34.77 121.1s2.5664 88.898 34.766 121.1c28.469 28 90.07 42.23 151.9 42.23s123.43-14 151.9-42c32.203-32.434 34.77-101.03 34.77-121.33s-2.5664-88.898-34.766-121.1h-0.003906c-10.27-9.3867-22.223-16.75-35.23-21.699v-67.199c-0.007813-30.996-12.348-60.715-34.301-82.602zm-152.37 82.602c0-25.008 13.344-48.117 35-60.621s48.344-12.504 70 0 35 35.613 35 60.621v53.199c-46.289-8.3984-93.711-8.3984-140 0zm210 210c2.6797 30.746-4.6875 61.531-21 87.734-38.965 38.734-199.04 38.734-238 0-16.312-26.203-23.68-56.988-21-87.734-2.6797-30.746 4.6875-61.531 21-87.734 9.3008-8.2773 20.406-14.27 32.434-17.5h2.8008c27.262-7.6562 55.449-11.504 83.766-11.434 28.273-0.375 56.461 3.1602 83.766 10.5h2.8008c12.027 3.2305 23.133 9.2227 32.434 17.5 16.512 26.465 23.887 57.609 21 88.668z"/>
  <path d="m373.33 303.33h-46.664c-8.3359 0-16.039 4.4492-20.207 11.668-4.168 7.2188-4.168 16.113 0 23.332 4.168 7.2188 11.871 11.668 20.207 11.668v23.332c0 8.3359 4.4453 16.039 11.664 20.207 7.2188 4.168 16.117 4.168 23.336 0 7.2188-4.168 11.664-11.871 11.664-20.207v-23.332c8.3359 0 16.039-4.4492 20.207-11.668 4.168-7.2188 4.168-16.113 0-23.332-4.168-7.2188-11.871-11.668-20.207-11.668z"/>
 </g>
</svg>
