<?xml version="1.0" encoding="UTF-8"?>
<svg width="700pt" height="700pt" version="1.1" viewBox="0 0 700 700" xmlns="http://www.w3.org/2000/svg">
 <g>
  <path d="m583.33 210c0-18.566-7.375-36.371-20.5-49.496-13.129-13.129-30.934-20.504-49.5-20.504h-70c0-33.344-17.789-64.156-46.664-80.828-28.879-16.672-64.457-16.672-93.336 0-28.875 16.672-46.664 47.484-46.664 80.828h-70c-18.566 0-36.371 7.375-49.5 20.504-13.125 13.125-20.5 30.93-20.5 49.496v233.33c0 18.566 7.375 36.371 20.5 49.5 13.129 13.125 30.934 20.5 49.5 20.5h326.66c18.566 0 36.371-7.375 49.5-20.5 13.125-13.129 20.5-30.934 20.5-49.5zm-233.33-116.67c12.375 0 24.246 4.918 33 13.668 8.75 8.7539 13.668 20.625 13.668 33h-93.336c0-12.375 4.918-24.246 13.668-33 8.7539-8.75 20.625-13.668 33-13.668zm186.67 350c0 6.1914-2.4609 12.125-6.8359 16.5s-10.309 6.8359-16.5 6.8359h-326.66c-6.1914 0-12.125-2.4609-16.5-6.8359s-6.8359-10.309-6.8359-16.5v-233.33c0-6.1875 2.4609-12.125 6.8359-16.5s10.309-6.832 16.5-6.832h326.66c6.1914 0 12.125 2.457 16.5 6.832s6.8359 10.312 6.8359 16.5z"/>
  <path d="m490 256.67h-70c-8.3359 0-16.039 4.4453-20.207 11.664s-4.168 16.117 0 23.336 11.871 11.664 20.207 11.664h70c8.3359 0 16.039-4.4453 20.207-11.664s4.168-16.117 0-23.336-11.871-11.664-20.207-11.664z"/>
  <path d="m490 350h-70c-8.3359 0-16.039 4.4492-20.207 11.668s-4.168 16.113 0 23.332 11.871 11.668 20.207 11.668h70c8.3359 0 16.039-4.4492 20.207-11.668s4.168-16.113 0-23.332-11.871-11.668-20.207-11.668z"/>
  <path d="m335.54 333.67c9.2539-12.059 14.332-26.801 14.465-42 0-25.012-13.344-48.117-35-60.625-21.656-12.504-48.344-12.504-70 0-21.656 12.508-35 35.613-35 60.625 0.13281 15.199 5.2109 29.941 14.465 42-23.676 17.527-37.688 45.207-37.797 74.664 0 8.3359 4.4453 16.039 11.664 20.207 7.2188 4.168 16.117 4.168 23.336 0 7.2188-4.168 11.664-11.871 11.664-20.207 0-16.672 8.8945-32.078 23.336-40.414 14.438-8.3359 32.227-8.3359 46.664 0 14.441 8.3359 23.336 23.742 23.336 40.414 0 8.3359 4.4453 16.039 11.664 20.207 7.2188 4.168 16.117 4.168 23.336 0 7.2188-4.168 11.664-11.871 11.664-20.207-0.10938-29.457-14.121-57.137-37.797-74.664zm-78.867-42c0-6.1914 2.457-12.125 6.832-16.5s10.312-6.8359 16.5-6.8359 12.125 2.4609 16.5 6.8359 6.832 10.309 6.832 16.5c0 6.1875-2.457 12.121-6.832 16.496-4.375 4.3789-10.312 6.8359-16.5 6.8359s-12.125-2.457-16.5-6.8359c-4.375-4.375-6.832-10.309-6.832-16.496z"/>
 </g>
</svg>
