<?xml version="1.0" encoding="UTF-8"?>
<svg width="700pt" height="700pt" version="1.1" viewBox="0 0 700 700" xmlns="http://www.w3.org/2000/svg">
 <g>
  <path d="m350 390.83c29.395 0 57.586-11.676 78.371-32.461s32.461-48.977 32.461-78.371-11.676-57.586-32.461-78.371-48.977-32.461-78.371-32.461-57.586 11.676-78.371 32.461-32.461 48.977-32.461 78.371c0.035156 29.383 11.727 57.555 32.5 78.332 20.777 20.773 48.949 32.465 78.332 32.5zm0-186.67v0.003907c20.113 0 39.402 7.9883 53.621 22.211 14.223 14.219 22.211 33.508 22.211 53.621s-7.9883 39.402-22.211 53.621c-14.219 14.223-33.508 22.211-53.621 22.211s-39.402-7.9883-53.621-22.211c-14.223-14.219-22.211-33.508-22.211-53.621 0.023437-20.105 8.0195-39.379 22.238-53.594 14.215-14.219 33.488-22.215 53.594-22.238z"/>
  <path d="m126.35 356.72c-4.4062 16.441-2.1016 33.961 6.4102 48.699s22.531 25.492 38.973 29.895 33.957 2.0938 48.695-6.4219l4.668-2.6133c17.969 15.293 38.594 27.16 60.852 35v5.3906c0 22.922 12.23 44.105 32.086 55.57 19.852 11.461 44.312 11.461 64.164 0 19.855-11.465 32.086-32.648 32.086-55.57v-5.3203c22.254-7.8438 42.883-19.707 60.852-35l4.668 2.6133c14.754 8.8945 32.465 11.484 49.148 7.1875 16.684-4.3008 30.938-15.129 39.555-30.047 8.6133-14.922 10.867-32.68 6.2539-49.277-4.6172-16.602-15.711-30.645-30.793-38.977l-4.668-2.6836h0.003907c4.5078-23.18 4.5078-47.008 0-70.188l4.668-2.6836h-0.003906c15.082-8.332 26.176-22.379 30.793-38.977 4.6133-16.598 2.3594-34.355-6.2539-49.277-8.6172-14.918-22.871-25.746-39.555-30.047-16.684-4.3008-34.395-1.7109-49.148 7.1875l-4.668 2.6133c-17.969-15.297-38.598-27.16-60.852-35v-5.4609c0-22.922-12.23-44.105-32.086-55.57-19.852-11.461-44.312-11.461-64.164 0-19.855 11.465-32.086 32.648-32.086 55.57v5.3203c-22.258 7.8438-42.883 19.707-60.852 35l-4.668-2.6133c-19.859-11.449-44.32-11.434-64.168 0.042969-19.848 11.473-32.062 32.664-32.047 55.59 0.011718 22.926 12.258 44.102 32.117 55.551l4.668 2.6836c-4.5117 23.18-4.5117 47.008 0 70.188l-4.668 2.6836c-14.797 8.4492-25.594 22.477-29.98 38.941zm33.809 9.0781c1.9922-7.4883 6.8867-13.871 13.602-17.734l15.727-9.0781v0.003906c3.3086-1.9141 5.9023-4.8516 7.3867-8.375 1.4805-3.5195 1.7734-7.4297 0.82812-11.133-6.9375-25.863-6.9375-53.098 0-78.961 0.94922-3.7031 0.66016-7.6133-0.82422-11.137-1.4805-3.5195-4.0781-6.4609-7.3906-8.3711l-15.727-9.0781v0.003906c-9.0273-5.2227-14.582-14.867-14.574-25.297s5.582-20.062 14.617-25.27c9.0391-5.207 20.168-5.1953 29.195 0.027344l15.633 9.0547v-0.003906c3.3203 1.8906 7.1602 2.6484 10.949 2.1641 3.7852-0.48438 7.3164-2.1836 10.051-4.8477 19.066-18.742 42.598-32.312 68.367-39.434 3.6875-1.0273 6.9336-3.2305 9.25-6.2773 2.3203-3.0469 3.5781-6.7656 3.582-10.59v-18.133c0-10.418 5.5586-20.047 14.586-25.258 9.0234-5.2109 20.141-5.2109 29.164 0 9.0273 5.2109 14.586 14.84 14.586 25.258v18.156c0.003906 3.8242 1.2617 7.543 3.582 10.59 2.3164 3.0469 5.5625 5.25 9.25 6.2773 25.777 7.1094 49.312 20.676 68.391 39.41 2.7305 2.6758 6.2578 4.3828 10.051 4.8672 3.7891 0.48438 7.6328-0.28125 10.949-2.1836l15.633-9.0547v0.003907c9.0273-5.2109 20.148-5.2109 29.176 0.003906 9.0273 5.2148 14.586 14.848 14.582 25.27 0 10.426-5.5625 20.055-14.59 25.266l-15.727 9.0781v-0.003906c-3.3086 1.9141-5.9023 4.8516-7.3867 8.375-1.4805 3.5195-1.7734 7.4297-0.82812 11.133 6.9375 25.863 6.9375 53.098 0 78.961-0.94531 3.7031-0.65234 7.6133 0.82812 11.133 1.4844 3.5234 4.0781 6.4609 7.3867 8.375l15.727 9.0781v-0.003906c9.0273 5.2109 14.59 14.84 14.59 25.266 0.003906 10.422-5.5547 20.055-14.582 25.27-9.0273 5.2148-20.148 5.2148-29.176 0.003906l-15.633-9.0547v0.003906c-3.3164-1.9023-7.1602-2.668-10.949-2.1836-3.793 0.48437-7.3203 2.1914-10.051 4.8672-19.094 18.719-42.625 32.285-68.391 39.434-3.6914 1.0117-6.9453 3.2109-9.2656 6.2539-2.3164 3.043-3.5703 6.7656-3.5664 10.59v18.156c0 10.418-5.5586 20.047-14.586 25.258-9.0234 5.2109-20.141 5.2109-29.164 0-9.0273-5.2109-14.586-14.84-14.586-25.258v-18.156c0.003907-3.8242-1.25-7.5469-3.5664-10.59-2.3203-3.043-5.5742-5.2422-9.2656-6.2539-25.766-7.1484-49.297-20.715-68.391-39.434-2.7305-2.6719-6.2617-4.375-10.051-4.8594-3.7891-0.48438-7.6328 0.27734-10.949 2.1758l-15.633 9.0547v-0.003907c-6.6992 3.875-14.664 4.9258-22.141 2.9258-7.4727-2-13.848-6.8867-17.719-13.59-3.8672-6.7031-4.9141-14.668-2.9102-22.141z"/>
 </g>
</svg>
