<?xml version="1.0" encoding="UTF-8"?>
<svg width="700pt" height="700pt" version="1.1" viewBox="0 0 700 700" xmlns="http://www.w3.org/2000/svg">
 <g>
  <path d="m350 46.668c-86.801 0-158.43 23.332-191.8 61.367-55.535 64.398-55.535 280 0 343.93 33.367 38.031 105 61.363 191.8 61.363s158.43-23.332 191.8-61.367c55.535-64.398 55.535-280 0-343.93-33.367-38.031-105-61.363-191.8-61.363zm156.33 374.73c-23.332 27.062-86.332 45.266-156.33 45.266s-133-18.199-156.33-45.266c-40.133-46.668-40.133-236.6 0-282.8 23.332-27.066 86.332-45.27 156.33-45.27s133 18.199 156.33 45.266c40.133 46.203 40.133 236.6 0 282.8z"/>
  <path d="m369.13 154.23c-22.145-5.9297-45.789-1.1836-63.934 12.832-18.039 13.758-28.578 35.18-28.465 57.867 0 8.3359 4.4453 16.039 11.664 20.207 7.2227 4.168 16.117 4.168 23.336 0s11.664-11.871 11.664-20.207c0.050781-6.5938 2.5508-12.93 7.0078-17.789 4.4609-4.8555 10.566-7.8789 17.129-8.4922 6.5664-0.60938 13.121 1.2383 18.402 5.1875 5.2773 3.9531 8.9023 9.7227 10.168 16.191s0.082031 13.18-3.3164 18.828c-3.4023 5.6484-8.7773 9.832-15.09 11.742-9.0859 2.8164-17.016 8.4961-22.609 16.191-5.5938 7.6953-8.5469 16.996-8.4219 26.508v21.699c0 8.3359 4.4453 16.039 11.664 20.207s16.117 4.168 23.336 0 11.664-11.871 11.664-20.207v-20.535c19.914-6.7812 35.949-21.793 44.027-41.215s7.4219-41.379-1.8086-60.281c-9.2266-18.902-26.137-32.926-46.418-38.504z"/>
  <path d="m373.33 373.33c0 12.887-10.445 23.336-23.332 23.336s-23.332-10.449-23.332-23.336 10.445-23.332 23.332-23.332 23.332 10.445 23.332 23.332"/>
 </g>
</svg>
