<?xml version="1.0" encoding="UTF-8"?>
<svg width="700pt" height="700pt" version="1.1" viewBox="0 0 700 700" xmlns="http://www.w3.org/2000/svg">
 <path d="m583.33 373.33c-0.097656-16.57-8.9805-31.848-23.332-40.133v-193.2c0-18.566-7.375-36.371-20.504-49.496-13.125-13.129-30.93-20.504-49.496-20.504h-280c-18.566 0-36.371 7.375-49.496 20.504-13.129 13.125-20.504 30.93-20.504 49.496v193.2c-14.352 8.2852-23.234 23.562-23.332 40.133v46.668c0 18.566 7.375 36.371 20.5 49.496 13.129 13.129 30.934 20.504 49.5 20.504h326.66c18.566 0 36.371-7.375 49.5-20.504 13.125-13.125 20.5-30.93 20.5-49.496zm-373.33-256.66h280c6.1875 0 12.125 2.457 16.5 6.832s6.832 10.312 6.832 16.5v186.67h-55.531c-8.6836 0.003906-17.191 2.4297-24.57 7.0039-7.3789 4.5781-13.332 11.121-17.195 18.895l-10.5 20.766h-111.07l-10.5-20.766c-3.8633-7.7734-9.8164-14.316-17.195-18.895-7.3789-4.5742-15.887-7-24.57-7.0039h-55.531v-186.67c0-6.1875 2.457-12.125 6.832-16.5s10.312-6.832 16.5-6.832zm326.67 303.33c0 6.1875-2.4609 12.125-6.8359 16.5s-10.309 6.832-16.5 6.832h-326.66c-6.1914 0-12.125-2.457-16.5-6.832s-6.8359-10.312-6.8359-16.5v-46.668h78.867l10.5 20.766v0.003906c3.8633 7.7734 9.8203 14.316 17.199 18.891 7.3789 4.5781 15.887 7.0039 24.566 7.0078h111.07c8.6797-0.003906 17.188-2.4297 24.566-7.0078 7.3789-4.5742 13.336-11.117 17.199-18.891l10.5-20.766 78.867-0.003907z"/>
</svg>
